<mxfile host="app.diagrams.net" agent="Mozilla/5.0 (Windows NT 10.0; Win64; x64) AppleWebKit/537.36 (KHTML, like Gecko) Chrome/133.0.0.0 Safari/537.36 Edg/133.0.0.0" version="26.0.14">
  <diagram name="Page-1" id="vqhNitybVT5fOSRG9gDj">
    <mxGraphModel dx="1865" dy="995" grid="1" gridSize="10" guides="1" tooltips="1" connect="1" arrows="1" fold="1" page="1" pageScale="1" pageWidth="850" pageHeight="1100" math="0" shadow="0">
      <root>
        <mxCell id="0" />
        <mxCell id="yVK1qFC9MktJ_KQmzJeM-52" value="Untitled Layer" parent="0" />
        <mxCell id="1" parent="0" />
        <mxCell id="yVK1qFC9MktJ_KQmzJeM-1" value="" style="rounded=0;whiteSpace=wrap;html=1;" vertex="1" parent="1">
          <mxGeometry x="110" y="90" width="640" height="860" as="geometry" />
        </mxCell>
        <mxCell id="yVK1qFC9MktJ_KQmzJeM-5" value="&lt;b&gt;sd Online_Bookshop&lt;/b&gt;" style="rounded=0;whiteSpace=wrap;html=1;" vertex="1" parent="1">
          <mxGeometry x="110" y="90" width="150" height="40" as="geometry" />
        </mxCell>
        <mxCell id="yVK1qFC9MktJ_KQmzJeM-6" value="&lt;b&gt;:Web Customer&lt;/b&gt;" style="shape=umlActor;verticalLabelPosition=bottom;verticalAlign=top;html=1;outlineConnect=0;" vertex="1" parent="1">
          <mxGeometry x="210" y="170" width="40" height="80" as="geometry" />
        </mxCell>
        <mxCell id="yVK1qFC9MktJ_KQmzJeM-7" value="&lt;b&gt;:Online&lt;/b&gt;&lt;div&gt;&lt;b&gt;Bookshop&lt;/b&gt;&lt;/div&gt;" style="rounded=0;whiteSpace=wrap;html=1;" vertex="1" parent="1">
          <mxGeometry x="560" y="190" width="135" height="70" as="geometry" />
        </mxCell>
        <mxCell id="yVK1qFC9MktJ_KQmzJeM-11" value="&lt;b&gt;loop&lt;/b&gt;" style="rounded=0;whiteSpace=wrap;html=1;" vertex="1" parent="1">
          <mxGeometry x="190" y="310" width="85" height="40" as="geometry" />
        </mxCell>
        <mxCell id="yVK1qFC9MktJ_KQmzJeM-13" value="" style="rounded=0;whiteSpace=wrap;html=1;fillColor=#eeeeee;strokeColor=#36393d;" vertex="1" parent="1">
          <mxGeometry x="620" y="370" width="20" height="60" as="geometry" />
        </mxCell>
        <mxCell id="yVK1qFC9MktJ_KQmzJeM-15" value="" style="endArrow=none;html=1;rounded=0;entryX=0.997;entryY=0.044;entryDx=0;entryDy=0;entryPerimeter=0;startArrow=classic;startFill=1;exitX=-0.05;exitY=0.385;exitDx=0;exitDy=0;exitPerimeter=0;" edge="1" parent="1" source="yVK1qFC9MktJ_KQmzJeM-13" target="yVK1qFC9MktJ_KQmzJeM-12">
          <mxGeometry width="50" height="50" relative="1" as="geometry">
            <mxPoint x="620" y="388" as="sourcePoint" />
            <mxPoint x="240" y="391.71" as="targetPoint" />
          </mxGeometry>
        </mxCell>
        <mxCell id="yVK1qFC9MktJ_KQmzJeM-16" value="search inventory" style="edgeLabel;html=1;align=center;verticalAlign=middle;resizable=0;points=[];" vertex="1" connectable="0" parent="yVK1qFC9MktJ_KQmzJeM-15">
          <mxGeometry x="-0.0294" y="2" relative="1" as="geometry">
            <mxPoint y="-11" as="offset" />
          </mxGeometry>
        </mxCell>
        <mxCell id="yVK1qFC9MktJ_KQmzJeM-12" value="" style="rounded=0;whiteSpace=wrap;html=1;fillColor=#eeeeee;strokeColor=#36393d;" vertex="1" parent="1">
          <mxGeometry x="220" y="370" width="20" height="540" as="geometry" />
        </mxCell>
        <mxCell id="yVK1qFC9MktJ_KQmzJeM-17" value="" style="endArrow=classic;html=1;rounded=0;entryX=0.997;entryY=0.044;entryDx=0;entryDy=0;entryPerimeter=0;startArrow=none;startFill=0;endFill=1;dashed=1;dashPattern=12 12;" edge="1" parent="1">
          <mxGeometry width="50" height="50" relative="1" as="geometry">
            <mxPoint x="620" y="410" as="sourcePoint" />
            <mxPoint x="240" y="410" as="targetPoint" />
          </mxGeometry>
        </mxCell>
        <mxCell id="yVK1qFC9MktJ_KQmzJeM-19" value="search results" style="edgeLabel;html=1;align=center;verticalAlign=middle;resizable=0;points=[];" vertex="1" connectable="0" parent="yVK1qFC9MktJ_KQmzJeM-17">
          <mxGeometry x="-0.022" y="1" relative="1" as="geometry">
            <mxPoint y="7" as="offset" />
          </mxGeometry>
        </mxCell>
        <mxCell id="yVK1qFC9MktJ_KQmzJeM-22" value="" style="rounded=0;whiteSpace=wrap;html=1;fillColor=none;" vertex="1" parent="1">
          <mxGeometry x="210" y="580" width="460" height="90" as="geometry" />
        </mxCell>
        <mxCell id="yVK1qFC9MktJ_KQmzJeM-20" value="" style="rounded=0;whiteSpace=wrap;html=1;fillColor=none;" vertex="1" parent="1">
          <mxGeometry x="210" y="460" width="460" height="90" as="geometry" />
        </mxCell>
        <mxCell id="yVK1qFC9MktJ_KQmzJeM-23" value="" style="rounded=0;whiteSpace=wrap;html=1;fillColor=none;" vertex="1" parent="1">
          <mxGeometry x="190" y="760" width="505" height="130" as="geometry" />
        </mxCell>
        <mxCell id="yVK1qFC9MktJ_KQmzJeM-27" value="&lt;b&gt;opt&lt;/b&gt;" style="rounded=0;whiteSpace=wrap;html=1;" vertex="1" parent="1">
          <mxGeometry x="210" y="460" width="85" height="40" as="geometry" />
        </mxCell>
        <mxCell id="yVK1qFC9MktJ_KQmzJeM-28" value="" style="rounded=0;whiteSpace=wrap;html=1;fillColor=#eeeeee;strokeColor=#36393d;" vertex="1" parent="1">
          <mxGeometry x="620" y="507.5" width="20" height="25" as="geometry" />
        </mxCell>
        <mxCell id="yVK1qFC9MktJ_KQmzJeM-38" value="" style="endArrow=none;html=1;rounded=0;entryX=0.997;entryY=0.044;entryDx=0;entryDy=0;entryPerimeter=0;startArrow=classic;startFill=1;exitX=-0.05;exitY=0.385;exitDx=0;exitDy=0;exitPerimeter=0;" edge="1" parent="1">
          <mxGeometry width="50" height="50" relative="1" as="geometry">
            <mxPoint x="619" y="520" as="sourcePoint" />
            <mxPoint x="240" y="521" as="targetPoint" />
          </mxGeometry>
        </mxCell>
        <mxCell id="yVK1qFC9MktJ_KQmzJeM-39" value="view book description" style="edgeLabel;html=1;align=center;verticalAlign=middle;resizable=0;points=[];" vertex="1" connectable="0" parent="yVK1qFC9MktJ_KQmzJeM-38">
          <mxGeometry x="-0.0294" y="2" relative="1" as="geometry">
            <mxPoint y="-11" as="offset" />
          </mxGeometry>
        </mxCell>
        <mxCell id="yVK1qFC9MktJ_KQmzJeM-40" value="&lt;b&gt;opt&lt;/b&gt;" style="rounded=0;whiteSpace=wrap;html=1;" vertex="1" parent="1">
          <mxGeometry x="210" y="580" width="85" height="40" as="geometry" />
        </mxCell>
        <mxCell id="yVK1qFC9MktJ_KQmzJeM-41" value="" style="rounded=0;whiteSpace=wrap;html=1;fillColor=#eeeeee;strokeColor=#36393d;" vertex="1" parent="1">
          <mxGeometry x="620" y="627.5" width="20" height="25" as="geometry" />
        </mxCell>
        <mxCell id="yVK1qFC9MktJ_KQmzJeM-42" value="" style="endArrow=none;html=1;rounded=0;entryX=0.997;entryY=0.044;entryDx=0;entryDy=0;entryPerimeter=0;startArrow=classic;startFill=1;exitX=-0.05;exitY=0.385;exitDx=0;exitDy=0;exitPerimeter=0;" edge="1" parent="1">
          <mxGeometry width="50" height="50" relative="1" as="geometry">
            <mxPoint x="619" y="639.5" as="sourcePoint" />
            <mxPoint x="240" y="640.5" as="targetPoint" />
          </mxGeometry>
        </mxCell>
        <mxCell id="yVK1qFC9MktJ_KQmzJeM-43" value="add to shopping cart" style="edgeLabel;html=1;align=center;verticalAlign=middle;resizable=0;points=[];" vertex="1" connectable="0" parent="yVK1qFC9MktJ_KQmzJeM-42">
          <mxGeometry x="-0.0294" y="2" relative="1" as="geometry">
            <mxPoint y="-11" as="offset" />
          </mxGeometry>
        </mxCell>
        <mxCell id="yVK1qFC9MktJ_KQmzJeM-45" value="&lt;b&gt;opt&lt;/b&gt;" style="rounded=0;whiteSpace=wrap;html=1;" vertex="1" parent="1">
          <mxGeometry x="190" y="760" width="85" height="40" as="geometry" />
        </mxCell>
        <mxCell id="yVK1qFC9MktJ_KQmzJeM-46" value="Checkout" style="rounded=0;whiteSpace=wrap;html=1;fillColor=default;" vertex="1" parent="1">
          <mxGeometry x="210" y="810" width="460" height="60" as="geometry" />
        </mxCell>
        <mxCell id="yVK1qFC9MktJ_KQmzJeM-47" value="&lt;b&gt;ref&lt;/b&gt;" style="rounded=0;whiteSpace=wrap;html=1;" vertex="1" parent="1">
          <mxGeometry x="210" y="810" width="80" height="30" as="geometry" />
        </mxCell>
        <mxCell id="yVK1qFC9MktJ_KQmzJeM-8" value="" style="rounded=0;whiteSpace=wrap;html=1;fillColor=none;" vertex="1" parent="1">
          <mxGeometry x="190" y="310" width="505" height="410" as="geometry" />
        </mxCell>
        <mxCell id="yVK1qFC9MktJ_KQmzJeM-49" value="" style="shape=partialRectangle;whiteSpace=wrap;html=1;bottom=1;right=1;left=1;top=0;fillColor=none;routingCenterX=-0.5;rotation=-180;" vertex="1" parent="1">
          <mxGeometry x="200" y="430" width="60" height="20" as="geometry" />
        </mxCell>
        <mxCell id="yVK1qFC9MktJ_KQmzJeM-50" value="" style="shape=partialRectangle;whiteSpace=wrap;html=1;bottom=1;right=1;left=1;top=0;fillColor=none;routingCenterX=-0.5;rotation=0;" vertex="1" parent="1">
          <mxGeometry x="200" y="684" width="60" height="20" as="geometry" />
        </mxCell>
        <mxCell id="yVK1qFC9MktJ_KQmzJeM-55" value="" style="endArrow=none;html=1;rounded=0;exitX=0.07;exitY=0;exitDx=0;exitDy=0;exitPerimeter=0;dashed=1;dashPattern=8 8;" edge="1" parent="1">
          <mxGeometry width="50" height="50" relative="1" as="geometry">
            <mxPoint x="229.35000000000002" y="310" as="sourcePoint" />
            <mxPoint x="229.31" y="270" as="targetPoint" />
          </mxGeometry>
        </mxCell>
        <mxCell id="yVK1qFC9MktJ_KQmzJeM-56" value="" style="endArrow=none;html=1;rounded=0;dashed=1;dashPattern=8 8;" edge="1" parent="1">
          <mxGeometry width="50" height="50" relative="1" as="geometry">
            <mxPoint x="230" y="370" as="sourcePoint" />
            <mxPoint x="230.31" y="350" as="targetPoint" />
          </mxGeometry>
        </mxCell>
        <mxCell id="yVK1qFC9MktJ_KQmzJeM-57" value="" style="endArrow=none;html=1;rounded=0;exitX=0.07;exitY=0;exitDx=0;exitDy=0;exitPerimeter=0;dashed=1;dashPattern=8 8;" edge="1" parent="1">
          <mxGeometry width="50" height="50" relative="1" as="geometry">
            <mxPoint x="229.81000000000003" y="950" as="sourcePoint" />
            <mxPoint x="229.77" y="910" as="targetPoint" />
          </mxGeometry>
        </mxCell>
        <mxCell id="yVK1qFC9MktJ_KQmzJeM-58" value="" style="endArrow=none;html=1;rounded=0;exitX=0.07;exitY=0;exitDx=0;exitDy=0;exitPerimeter=0;dashed=1;dashPattern=8 8;" edge="1" parent="1">
          <mxGeometry width="50" height="50" relative="1" as="geometry">
            <mxPoint x="629.89" y="300" as="sourcePoint" />
            <mxPoint x="629.85" y="260" as="targetPoint" />
            <Array as="points">
              <mxPoint x="630" y="370" />
            </Array>
          </mxGeometry>
        </mxCell>
        <mxCell id="yVK1qFC9MktJ_KQmzJeM-60" value="" style="endArrow=none;html=1;rounded=0;exitX=0.07;exitY=0;exitDx=0;exitDy=0;exitPerimeter=0;dashed=1;dashPattern=12 12;" edge="1" parent="1">
          <mxGeometry width="50" height="50" relative="1" as="geometry">
            <mxPoint x="629.93" y="467" as="sourcePoint" />
            <mxPoint x="630" y="430" as="targetPoint" />
            <Array as="points">
              <mxPoint x="630" y="507" />
            </Array>
          </mxGeometry>
        </mxCell>
        <mxCell id="yVK1qFC9MktJ_KQmzJeM-61" value="" style="endArrow=none;html=1;rounded=0;exitX=0.07;exitY=0;exitDx=0;exitDy=0;exitPerimeter=0;dashed=1;dashPattern=8 8;" edge="1" parent="1">
          <mxGeometry width="50" height="50" relative="1" as="geometry">
            <mxPoint x="629.75" y="569.5" as="sourcePoint" />
            <mxPoint x="629.82" y="532.5" as="targetPoint" />
            <Array as="points">
              <mxPoint x="630" y="630" />
            </Array>
          </mxGeometry>
        </mxCell>
        <mxCell id="yVK1qFC9MktJ_KQmzJeM-62" value="" style="endArrow=none;html=1;rounded=0;exitX=0.07;exitY=0;exitDx=0;exitDy=0;exitPerimeter=0;dashed=1;dashPattern=8 8;" edge="1" parent="1">
          <mxGeometry width="50" height="50" relative="1" as="geometry">
            <mxPoint x="629.82" y="688.25" as="sourcePoint" />
            <mxPoint x="629.8900000000001" y="651.25" as="targetPoint" />
            <Array as="points">
              <mxPoint x="630" y="810" />
            </Array>
          </mxGeometry>
        </mxCell>
        <mxCell id="yVK1qFC9MktJ_KQmzJeM-63" value="" style="endArrow=none;html=1;rounded=0;exitX=0.07;exitY=0;exitDx=0;exitDy=0;exitPerimeter=0;dashed=1;dashPattern=8 8;" edge="1" parent="1">
          <mxGeometry width="50" height="50" relative="1" as="geometry">
            <mxPoint x="629.73" y="907" as="sourcePoint" />
            <mxPoint x="629.8000000000001" y="870" as="targetPoint" />
            <Array as="points">
              <mxPoint x="630" y="950" />
            </Array>
          </mxGeometry>
        </mxCell>
      </root>
    </mxGraphModel>
  </diagram>
</mxfile>
